<svg xmlns="http://www.w3.org/2000/svg" shape-rendering="geometricPrecision" text-rendering="geometricPrecision" image-rendering="optimizeQuality" fill-rule="evenodd" clip-rule="evenodd" viewBox="0 0 420 512.26"><g fill-rule="nonzero"><path fill="#411E2E" d="M7.01 353.5c4.21-13.22 10.46-26.41 18.72-39.57 28.39-45.17 80.56-84.79 124.69-113.97-6.76.98-13.15 1.76-19.18 2.33-45.2 4.24-105.7-2.54-124.16-51.03-9.13-23.94-7.67-60.23 4.03-84.06 13.7-27.92 41.19-41.17 69.5-50.13 13.75-4.36 28.97-7.74 45.67-10.12 16.16-2.31 33.05-4.04 50.63-5.2C194.65.59 212.8 0 231.34 0 250.5 0 268.06.61 284 1.83c16.04 1.23 30.31 3.09 42.8 5.56 4.62.91 9.06 2 13.3 3.24 12.49 2.62 23.58 6.46 33.24 11.53 10.6 5.56 19.35 12.51 26.24 20.82 6.97 8.42 12.17 18.76 15.58 31.01 3.23 11.56 4.84 24.74 4.84 39.51 0 58.85-46.13 104.44-88.52 138.96-13.43 10.93-28.6 22.37-45.51 34.28-4.3 3.03-19.27 12.59-37.6 24.21 7.95-1 15.7-1.78 23.23-2.33 44.17-3.24 117.57-1.61 137.06 48.38 4.12 10.56 6.18 22.86 6.18 36.88 0 46.69-25.26 79.04-67.77 96.32-13.75 5.59-29.5 9.66-47.24 12.19-48.08 7.15-100.11 9.87-148.74 9.87-23 0-43.15-2.51-60.45-7.51C16.58 489.01-15.33 423.68 7.01 353.5z"/><path fill="#FF72B6" d="M26.41 396.47c0-23.69 7.64-47.7 22.93-72.04 15.3-24.33 40.16-49.96 74.62-76.87 34.46-26.93 80.33-56.11 137.61-87.54 0-1.7-46.51 12.1-52.33 13.56-18.95 4.74-37.25 8.5-54.92 11.3-17.65 2.8-32.51 4.21-44.57 4.21-28.86 0-49.85-6.04-62.99-18.09-13.14-12.06-19.7-29.29-19.7-51.69 0-17.22 2.79-31.55 8.39-42.96 5.6-11.41 14.21-20.56 25.85-27.45 20.67-12.07 46.84-20.36 78.49-24.88 31.66-4.52 66-6.78 103.04-6.78 37.91 0 68.81 2.37 92.71 7.1 23.9 4.74 41.57 14 52.98 27.79 11.41 13.78 17.12 34.23 17.12 61.37 0 15.07-3.67 30.47-10.99 46.19-7.32 15.72-20.24 32.95-38.76 51.69-18.52 18.73-44.57 39.95-78.17 63.63-13.48 9.5-129.21 81.56-129.21 82.7 13.78-6.46 29.94-12.17 48.45-17.13 18.53-4.95 37.8-8.83 57.83-11.63 20.03-2.8 39.08-4.2 57.17-4.2 31.44 0 54.06 5.39 67.84 16.16 13.78 10.77 20.67 28.42 20.67 52.97 0 26.28-8.83 47.38-26.49 63.32-17.66 15.93-43.07 26.27-76.23 31-14.65 2.16-30.79 3.99-48.46 5.49-17.65 1.51-34.99 2.59-52 3.24-17.01.64-32.41.97-46.2.97-42.2 0-73.54-8.73-93.99-26.17-20.46-17.44-30.69-42.53-30.69-75.26z"/><path fill="#fff" d="M69.7 108.85c-1.75 4.4-6.74 6.56-11.15 4.81-4.4-1.75-6.55-6.74-4.81-11.14 6.23-15.73 17.48-26.15 31.21-32.96 12.97-6.46 28.13-9.57 43.17-10.93a8.594 8.594 0 019.32 7.78c.43 4.72-3.06 8.9-7.78 9.33-13.14 1.18-26.23 3.83-37.1 9.23-10.14 5.04-18.4 12.6-22.86 23.88zm94.8-34.84c-4.74.15-8.71-3.58-8.85-8.31-.15-4.74 3.57-8.71 8.31-8.86l3.09-.14c.09 0 .06.02 0 .05 4.57-1.04 9.18 1.75 10.32 6.32a8.616 8.616 0 01-6.26 10.44c-.69.16-1.75.29-3.11.36l-3.5.14zm2.55-17.25c-.12.04-.36.11-.12.05l.12-.05z"/></g></svg>